<?xml version="1.0" encoding="UTF-8"?>
<!DOCTYPE svg PUBLIC "-//W3C//DTD SVG 1.1//EN" "http://www.w3.org/Graphics/SVG/1.1/DTD/svg11.dtd">
<svg version="1.1" xmlns="http://www.w3.org/2000/svg" xmlns:xlink="http://www.w3.org/1999/xlink" x="0" y="0" width="1600" height="1200" viewBox="0, 0, 1600, 1200">
  <g id="レイヤー_1">
    <g>
      <path d="M518.448,956.618 C518.448,945.901 497.409,937.213 471.457,937.213 C445.504,937.213 424.466,945.901 424.466,956.618 C424.466,967.335 445.504,976.023 471.457,976.023 C497.409,976.023 518.448,967.335 518.448,956.618" fill="#181919"/>
      <path d="M491.137,930.85 C491.137,918.11 482.326,907.782 471.457,907.782 C460.588,907.782 451.777,918.11 451.777,930.85 C451.777,943.59 460.588,953.918 471.457,953.918 C482.326,953.918 491.137,943.59 491.137,930.85" fill="#181919"/>
      <path d="M490.17,943.513 C490.17,936.508 481.556,930.83 470.93,930.83 C460.305,930.83 451.691,936.508 451.691,943.513 C451.691,950.518 460.305,956.196 470.93,956.196 C481.556,956.196 490.17,950.518 490.17,943.513" fill="#181919"/>
      <path d="M485.954,930.32 L457.019,930.32 L446.766,607.75 L495.068,607.75 z" fill="#030000"/>
      <path d="M1232.698,944.228 C1232.698,933.596 1211.828,924.978 1186.083,924.978 C1160.337,924.978 1139.466,933.596 1139.466,944.228 C1139.466,954.86 1160.337,963.478 1186.083,963.478 C1211.828,963.478 1232.698,954.86 1232.698,944.228" fill="#181919"/>
      <path d="M1205.605,918.666 C1205.605,906.027 1196.865,895.782 1186.083,895.782 C1175.299,895.782 1166.559,906.027 1166.559,918.666 C1166.559,931.305 1175.299,941.55 1186.083,941.55 C1196.865,941.55 1205.605,931.305 1205.605,918.666" fill="#181919"/>
      <path d="M1204.646,931.228 C1204.646,924.279 1196.101,918.646 1185.56,918.646 C1175.019,918.646 1166.474,924.279 1166.474,931.228 C1166.474,938.177 1175.019,943.81 1185.56,943.81 C1196.101,943.81 1204.646,938.177 1204.646,931.228" fill="#181919"/>
      <path d="M737.448,1100.618 C737.448,1089.901 716.409,1081.213 690.457,1081.213 C664.504,1081.213 643.466,1089.901 643.466,1100.618 C643.466,1111.335 664.504,1120.023 690.457,1120.023 C716.409,1120.023 737.448,1111.335 737.448,1100.618" fill="#181919"/>
      <path d="M710.137,1074.85 C710.137,1062.11 701.326,1051.782 690.457,1051.782 C679.588,1051.782 670.777,1062.11 670.777,1074.85 C670.777,1087.59 679.588,1097.918 690.457,1097.918 C701.326,1097.918 710.137,1087.59 710.137,1074.85" fill="#181919"/>
      <path d="M709.17,1087.513 C709.17,1080.508 700.556,1074.83 689.93,1074.83 C679.305,1074.83 670.691,1080.508 670.691,1087.513 C670.691,1094.518 679.305,1100.196 689.93,1100.196 C700.556,1100.196 709.17,1094.518 709.17,1087.513" fill="#181919"/>
      <path d="M706.503,1067.59 L674.151,1067.59 L666.176,745.02 L714.478,745.02 z" fill="#181919"/>
      <path d="M1200.246,912.092 L1171.311,912.092 L1161.058,589.522 L1209.36,589.522 z" fill="#181919"/>
      <path d="M548,897.047 L548,930.085 L597.653,952.672 L624,940.659 L624,912.996 z" fill="#030000"/>
      <path d="M573.324,898.776 L563.945,898.776 L563.945,653.161 L572.324,653.161 z" fill="#323333"/>
      <path d="M593.564,900.074 L571.185,900.074 L571.185,654.459 L593.564,654.459 z" fill="#030000"/>
      <path d="M599.272,914.068 L587.893,914.068 L587.893,668.453 L598.272,668.453 z" fill="#323333"/>
      <path d="M617.512,915.365 L596.133,915.365 L596.133,669.75 L617.512,669.75 z" fill="#030000"/>
      <path d="M432,418.707 L432,451.745 C432,451.745 448.824,492.875 412.346,510.11 C386.618,522.267 372,506.545 372,521.924 L372,592.566 L494,591.592 L494,444.909 z" fill="#030000"/>
      <path d="M384.741,548.998 L384.637,588.566 L641,754.316 L642,703.762 z" fill="#181919"/>
      <path d="M445.661,426.183 L445.597,537.303 L713.931,667.22 C713.931,667.22 744.66,679.131 754.912,660.334 C765.165,641.538 760.47,550.52 760.47,550.52 L445.661,426.183" fill="#030000"/>
      <path d="M447.596,532.116 L386.001,541.303 L641.554,693.384 L734,682.667 z" fill="#E6E6E5"/>
      <path d="M642,703.762 L642.203,688.667 L386,541.303 L386,549.998 z" fill="#CBCBCB"/>
      <path d="M561.196,873.298 L624,900.145 L624,914.136 L601.043,924.668 L544.927,900.285 L545.074,883.795 z" fill="#030000"/>
      <path d="M751.203,551.998 C751.203,551.998 750.94,604.273 751.203,607.526 C751.466,610.78 744.932,634.477 722.125,649.043 C699.043,663.785 659.323,664.821 635.269,668.587 C625.14,670.173 626.726,677.422 626.726,691.092 C626.726,704.763 630.897,768.57 630.897,768.57 C630.897,768.57 672.862,769.035 801.708,757.026 C938.23,744.302 1040.677,728.961 1102.213,712.118 C1176.949,691.662 1123.977,645.526 1187.202,636.982 C1250.426,628.438 1288.392,619.324 1288.392,598.819 C1288.392,541 1286.125,472.744 1286.125,472.744 z" fill="#181919"/>
      <path d="M432.569,419.452 C432.569,419.452 624.462,417.04 816.373,418.839 C983.211,420.402 1146.618,424.841 1174.541,427.46 C1234.582,433.089 1277.62,446.104 1285.125,466.745 C1292.63,487.384 1268.18,506.087 1174.365,506.087 C1174.365,506.087 1112.418,515.909 1103.037,532.796 C1093.655,549.682 1042.097,551.932 982.15,559.973 C937.179,566.005 751.097,581.734 751.097,581.734 z" fill="#4D4D4D"/>
      <path d="M555.268,417.568 L792.086,62.126 L972.303,60.987 C972.303,60.987 940.797,142.059 956.505,168.209 C974.727,198.542 1223.746,121.91 1273.405,239.716 C1296.563,294.658 1206.862,405.729 1083.245,423.264 z" fill="#030000"/>
      <path d="M815.373,442.839 C982.211,444.402 1145.619,447.842 1173.542,450.46 C1232.536,455.99 1274.089,468.659 1282.676,488.678 C1284.886,484.281 1285.879,471.566 1284.125,466.744 C1276.62,446.105 1233.583,433.088 1173.542,427.46 C1145.619,424.842 982.211,420.402 815.373,418.839 C623.463,417.041 431.569,419.452 431.569,419.452 L454.543,446.425 C515.145,445.839 668.182,441.46 815.373,442.839" fill="#030000"/>
      <path d="M453,430 L506.306,430.91 L803.04,577.946 L747.098,581.734 z" fill="#323333"/>
      <path d="M528.123,453.553 C528.123,453.553 562.868,361.338 569.703,357.921 C573.215,356.165 614.955,355.963 670.521,374.68 C723.064,392.378 763.636,425.047 770.768,429.568 C784.438,438.233 774.994,447.721 764.719,471.188 C761.224,479.169 718.935,549.303 718.935,549.303 z" fill="#181919"/>
      <path d="M777.051,178.931 L927.47,567 L894.844,568.991 L761.522,183.495 C761.522,183.495 766.845,172.21 777.051,178.931" fill="#181919"/>
      <path d="M452.065,533.456 L420.706,537.829 C420.706,537.829 416.407,540.634 418.019,541.45 C420.021,542.463 424.017,541.848 424.017,541.848 L458.585,536.377 z" fill="#181919"/>
      <path d="M458.048,536.49 L426.689,540.863 C426.689,540.863 422.39,543.668 424.002,544.484 C426.004,545.497 430,544.882 430,544.882 L464.568,539.411 z" fill="#181919"/>
      <path d="M468.025,540.546 L436.666,544.919 C436.666,544.919 432.367,547.724 433.979,548.54 C435.981,549.553 439.977,548.938 439.977,548.938 L474.545,543.467 z" fill="#181919"/>
      <path d="M472.011,543.069 L440.652,547.442 C440.652,547.442 436.353,550.247 437.965,551.063 C439.967,552.076 443.963,551.461 443.963,551.461 L478.531,545.99 z" fill="#181919"/>
      <path d="M476.997,545.597 L445.638,549.97 C445.638,549.97 441.339,552.775 442.951,553.591 C444.953,554.604 448.949,553.989 448.949,553.989 L483.517,548.518 z" fill="#181919"/>
      <path d="M488.951,553.665 L457.592,558.038 C457.592,558.038 453.293,560.843 454.905,561.659 C456.907,562.672 460.903,562.057 460.903,562.057 L495.471,556.586 z" fill="#181919"/>
      <path d="M494.934,556.699 L463.575,561.072 C463.575,561.072 459.276,563.877 460.888,564.693 C462.89,565.706 466.886,565.091 466.886,565.091 L501.454,559.62 z" fill="#181919"/>
      <path d="M504.911,560.756 L473.552,565.129 C473.552,565.129 469.253,567.934 470.865,568.75 C472.867,569.763 476.863,569.148 476.863,569.148 L511.431,563.677 z" fill="#181919"/>
      <path d="M508.897,563.279 L477.538,567.652 C477.538,567.652 473.239,570.457 474.851,571.273 C476.853,572.286 480.849,571.671 480.849,571.671 L515.417,566.2 z" fill="#181919"/>
      <path d="M513.882,565.807 L482.523,570.18 C482.523,570.18 478.224,572.985 479.836,573.801 C481.838,574.814 485.834,574.199 485.834,574.199 L520.402,568.728 z" fill="#181919"/>
      <path d="M529.839,573.564 L498.48,577.937 C498.48,577.937 494.181,580.742 495.793,581.558 C497.795,582.571 501.791,581.956 501.791,581.956 L536.359,576.485 z" fill="#181919"/>
      <path d="M535.821,576.598 L504.462,580.971 C504.462,580.971 500.163,583.776 501.776,584.592 C503.777,585.605 507.773,584.99 507.773,584.99 L542.341,579.519 z" fill="#181919"/>
      <path d="M545.799,580.655 L514.44,585.028 C514.44,585.028 510.141,587.833 511.753,588.649 C513.755,589.662 517.751,589.047 517.751,589.047 L552.319,583.576 z" fill="#181919"/>
      <path d="M549.784,583.178 L518.425,587.551 C518.425,587.551 514.126,590.356 515.738,591.172 C517.74,592.185 521.736,591.57 521.736,591.57 L556.304,586.099 z" fill="#181919"/>
      <path d="M554.77,585.706 L523.411,590.079 C523.411,590.079 519.112,592.884 520.724,593.7 C522.726,594.713 526.722,594.098 526.722,594.098 L561.29,588.627 z" fill="#181919"/>
      <path d="M568.728,593.119 L537.369,597.492 C537.369,597.492 533.07,600.297 534.682,601.113 C536.684,602.126 540.68,601.511 540.68,601.511 L575.248,596.04 z" fill="#181919"/>
      <path d="M574.711,596.152 L543.352,600.526 C543.352,600.526 539.053,603.331 540.665,604.146 C542.667,605.159 546.663,604.544 546.663,604.544 L581.231,599.073 z" fill="#181919"/>
      <path d="M584.688,600.209 L553.329,604.582 C553.329,604.582 549.03,607.387 550.642,608.203 C552.644,609.216 556.64,608.601 556.64,608.601 L591.208,603.13 z" fill="#181919"/>
      <path d="M588.674,602.732 L557.315,607.105 C557.315,607.105 553.016,609.91 554.628,610.726 C556.63,611.739 560.626,611.124 560.626,611.124 L595.194,605.653 z" fill="#181919"/>
      <path d="M593.66,605.26 L562.301,609.633 C562.301,609.633 558.002,612.438 559.614,613.254 C561.616,614.267 565.612,613.652 565.612,613.652 L600.18,608.181 z" fill="#181919"/>
      <path d="M608.612,613.678 L577.253,618.052 C577.253,618.052 572.954,620.857 574.566,621.672 C576.568,622.685 580.564,622.07 580.564,622.07 L615.132,616.599 z" fill="#181919"/>
      <path d="M614.595,616.713 L583.236,621.086 C583.236,621.086 578.937,623.891 580.549,624.706 C582.551,625.719 586.547,625.104 586.547,625.104 L621.115,619.633 z" fill="#181919"/>
      <path d="M624.572,620.769 L593.213,625.142 C593.213,625.142 588.914,627.947 590.526,628.763 C592.528,629.776 596.524,629.161 596.524,629.161 L631.092,623.69 z" fill="#181919"/>
      <path d="M628.558,623.292 L597.199,627.665 C597.199,627.665 592.9,630.47 594.512,631.286 C596.514,632.299 600.51,631.684 600.51,631.684 L635.078,626.213 z" fill="#181919"/>
      <path d="M633.544,625.82 L602.185,630.193 C602.185,630.193 597.886,632.998 599.498,633.814 C601.5,634.827 605.496,634.212 605.496,634.212 L640.064,628.741 z" fill="#181919"/>
      <path d="M645.499,633.721 L614.14,638.094 C614.14,638.094 609.841,640.899 611.453,641.715 C613.455,642.728 617.451,642.113 617.451,642.113 L652.019,636.642 z" fill="#181919"/>
      <path d="M651.482,636.755 L620.123,641.128 C620.123,641.128 615.824,643.933 617.436,644.749 C619.438,645.762 623.434,645.147 623.434,645.147 L658.002,639.676 z" fill="#181919"/>
      <path d="M661.459,640.812 L630.1,645.185 C630.1,645.185 625.801,647.99 627.413,648.806 C629.415,649.819 633.411,649.204 633.411,649.204 L667.979,643.733 z" fill="#181919"/>
      <path d="M665.445,643.335 L634.086,647.708 C634.086,647.708 629.787,650.513 631.399,651.329 C633.401,652.342 637.397,651.727 637.397,651.727 L671.965,646.256 z" fill="#181919"/>
      <path d="M670.431,645.863 L639.072,650.236 C639.072,650.236 634.773,653.041 636.385,653.857 C638.387,654.87 642.383,654.255 642.383,654.255 L676.951,648.784 z" fill="#181919"/>
      <path d="M687.386,653.793 L656.027,658.166 C656.027,658.166 651.728,660.971 653.34,661.787 C655.342,662.8 659.338,662.185 659.338,662.185 L693.906,656.714 z" fill="#181919"/>
      <path d="M693.369,656.827 L662.01,661.2 C662.01,661.2 657.711,664.005 659.323,664.821 C661.325,665.834 665.321,665.219 665.321,665.219 L699.889,659.748 z" fill="#181919"/>
      <path d="M703.346,660.883 L671.987,665.256 C671.987,665.256 667.688,668.061 669.3,668.877 C671.302,669.89 675.298,669.275 675.298,669.275 L709.866,663.804 z" fill="#181919"/>
      <path d="M707.332,663.406 L675.973,667.779 C675.973,667.779 671.674,670.584 673.286,671.4 C675.288,672.413 679.284,671.798 679.284,671.798 L713.852,666.327 z" fill="#181919"/>
      <path d="M712.318,665.934 L680.959,670.307 C680.959,670.307 676.66,673.112 678.272,673.928 C680.274,674.941 684.27,674.326 684.27,674.326 L718.838,668.855 z" fill="#181919"/>
      <path d="M557.582,918.845 C557.582,918.845 542.045,928.405 531.863,929.946 C521.681,931.487 524.371,939.943 532.856,939.306 C541.341,938.67 565.941,922.232 565.941,922.232 z" fill="#C1996B"/>
      <path d="M570.493,924.792 C570.493,924.792 554.956,935.343 544.774,936.884 C534.592,938.425 539.268,946.881 547.753,946.244 C556.238,945.608 579.846,928.179 579.846,928.179 z" fill="#C1996B"/>
      <path d="M583.404,929.747 C583.404,929.747 569.853,942.28 559.671,943.821 C549.489,945.362 555.158,951.836 563.644,951.199 C574.093,950.415 596.09,930.639 592.757,933.134 z" fill="#C1996B"/>
      <path d="M409.548,993.801 L399.049,996.801 L396.049,781.199 L418.548,781.199 z" fill="#030000"/>
      <path d="M410.069,977.994 L401.75,980.764 L401.314,996.257 L409.549,993.801 z" fill="#866D41"/>
      <path d="M286,821 L290.635,831.591 L291.37,809.053 L268.871,808.053 L275.29,1004.284 L283.154,1008.938 z" fill="#181919"/>
      <path d="M292.674,836.25 L290.635,831.592 L286,821 L283.155,1008.938 L283.837,1009.342 L284.74,1009.876 L294.331,1007.089 L299.348,841.435 z" fill="#030000"/>
      <path d="M283.837,1009.342 L283.154,1008.938 L283.012,1023.463 L283.37,1023.655 z" fill="#030000"/>
      <path d="M384.663,1090.831 L384.739,1090.876 L395.737,1087.988 L404.299,890 L385.616,890 L385.8,890.006 z" fill="#181919"/>
      <path d="M385.471,1090.834 L386.704,890.007 L386.569,890 L369.76,889.006 L376.83,1086.319 L384,1090.674 L384,1090.672 z" fill="#030000"/>
      <path d="M384.385,1090.666 L384.8,1105.586 L384.663,1090.831 z" fill="#030000"/>
      <path d="M518.759,1066.94 L525.316,870 L510.959,870 L508.197,1069.701 z" fill="#181919"/>
      <path d="M494.118,870.055 L500.391,1065.628 L507,1069.617 L507,1069.621 L509.554,1069.857 L509.105,1069.71 L513.913,870 L514.044,865.529 z" fill="#181919"/>
      <path d="M507.74,1069.876 L507.372,1069.658 L507.818,1085.675 L508.197,1069.756 z" fill="#030000"/>
      <path d="M507.817,1085.675 L518.316,1082.675 L518.759,1066.976 L504.474,1070.658 z" fill="#C1996B"/>
      <path d="M507.817,1085.675 L508.371,1069.658 L500.576,1065.637 L501.197,1081.918 z" fill="#866D41"/>
      <path d="M384.763,1089.831 L385,1105.586 L385,1105.591 L395.399,1103.591 L395.787,1087.982 L384.814,1090.876 z" fill="#C1996B"/>
      <path d="M385,1105.599 L385,1105.586 L385.485,1090.666 L377.084,1086.316 L377.925,1101.069 z" fill="#866D41"/>
      <path d="M283.012,1023.463 L283.155,1008.938 L275.29,1004.283 L275.872,1019.654 z" fill="#C1996B"/>
      <path d="M283,1023.654 L294.093,1020.172 L294.331,1005.089 L282.74,1008.876 z" fill="#866D41"/>
      <path d="M393.005,754.205 L267.07,776.903 L267.611,818.076 L386.493,905.555 L527,876.306 L527,831.88 z" fill="#030000"/>
      <path d="M274.121,784.199 C274.121,784.199 287.98,793.726 308.768,808.017 C313.97,811.578 319.605,815.437 325.566,819.518 C331.55,823.559 337.861,827.822 344.39,832.231 C350.929,836.62 357.725,841.095 364.662,845.578 C368.135,847.81 371.653,850.031 375.219,852.19 C378.782,854.341 382.403,856.458 386.075,858.303 C386.992,858.756 387.917,859.184 388.828,859.541 C389.282,859.718 389.735,859.873 390.147,859.978 C390.354,860.032 390.543,860.063 390.687,860.079 L390.774,860.084 C390.794,860.087 390.705,860.087 390.792,860.084 L390.89,860.079 L391.283,860.057 C392.37,860.013 393.251,859.879 394.299,859.761 C395.327,859.627 396.353,859.495 397.384,859.338 C401.502,858.732 405.611,858.047 409.683,857.349 C417.831,855.96 425.849,854.543 433.602,853.136 C449.113,850.328 463.589,847.707 475.998,845.46 C482.204,844.343 487.894,843.318 492.937,842.41 C497.981,841.507 502.379,840.721 506,840.073 C513.249,838.803 517.391,838.078 517.391,838.078 C517.391,838.078 516.367,838.312 514.445,838.751 C512.522,839.185 509.701,839.821 506.112,840.63 C502.518,841.418 498.154,842.375 493.148,843.473 C488.14,844.564 482.494,845.815 476.316,847.083 C470.14,848.362 463.448,849.747 456.371,851.212 C449.289,852.652 441.828,854.218 434.082,855.697 C426.339,857.191 418.337,858.736 410.177,860.188 C406.094,860.905 401.976,861.608 397.811,862.238 C396.773,862.402 395.721,862.541 394.669,862.683 C393.636,862.808 392.434,862.97 391.422,863.012 L391.028,863.035 L390.93,863.04 C390.951,863.041 390.797,863.047 390.751,863.044 L390.445,863.03 C390.067,862.995 389.738,862.931 389.436,862.855 C388.829,862.703 388.287,862.515 387.76,862.314 C386.713,861.908 385.728,861.455 384.758,860.982 C380.899,859.081 377.281,856.903 373.68,854.72 C370.09,852.526 366.563,850.278 363.084,848.02 C356.119,843.514 349.386,838.913 342.889,834.436 C336.385,829.97 330.165,825.561 324.293,821.342 C318.433,817.11 312.892,813.108 307.778,809.414 C302.667,805.717 298.022,802.272 293.923,799.194 C289.824,796.117 286.251,793.435 283.308,791.226 C280.363,789.019 278.081,787.242 276.515,786.044 C274.954,784.841 274.121,784.199 274.121,784.199" fill="#4D4D4D"/>
      <path d="M388.5,874 C388.5,874 388.63,874.344 388.797,874.945 C388.967,875.547 389.173,876.406 389.365,877.438 C389.748,879.5 389.998,882.25 390,885 C390.001,887.75 389.754,890.5 389.369,892.562 C389.177,893.594 388.97,894.453 388.798,895.055 C388.631,895.656 388.5,896 388.5,896 C388.5,896 388.369,895.656 388.202,895.055 C388.03,894.453 387.823,893.594 387.631,892.562 C387.246,890.5 386.999,887.75 387,885 C387.002,882.25 387.252,879.5 387.635,877.438 C387.827,876.406 388.033,875.547 388.203,874.945 C388.37,874.344 388.5,874 388.5,874" fill="#4D4D4D"/>
    </g>
  </g>
</svg>
