<?xml version="1.0"?>
<svg xmlns:rdf="http://www.w3.org/1999/02/22-rdf-syntax-ns#" xmlns="http://www.w3.org/2000/svg" xmlns:cc="http://creativecommons.org/ns#" xmlns:xlink="http://www.w3.org/1999/xlink" xmlns:dc="http://purl.org/dc/elements/1.1/" xmlns:svg="http://www.w3.org/2000/svg" id="svg2" viewBox="0 0 382.87 940.62" version="1.0">
  <defs id="defs4">
    <linearGradient id="linearGradient26711">
      <stop id="stop26713" stop-color="#4c4c4c" offset="0"/>
      <stop id="stop26715" stop-color="#ebebeb" offset=".5"/>
      <stop id="stop26717" stop-color="#6e6e6e" offset="1"/>
    </linearGradient>
    <linearGradient id="linearGradient3869" x1="-166.79" xlink:href="#linearGradient26711" gradientUnits="userSpaceOnUse" y1="69.505" gradientTransform="matrix(.34783 0 0 1 -114.13 0)" x2="-166.79" y2="24.505"/>
    <linearGradient id="linearGradient3871" x1="-67.5" xlink:href="#linearGradient26711" gradientUnits="userSpaceOnUse" y1="38.434" gradientTransform="translate(-68.571 25)" x2="-67.5" y2="1.7908"/>
    <radialGradient id="radialGradient3897" gradientUnits="userSpaceOnUse" cy="264.44" cx="-585.89" gradientTransform="matrix(1 0 0 .95315 0 12.388)" r="86.251">
      <stop id="stop29682" stop-color="#242424" offset="0"/>
      <stop id="stop29684" stop-color="#ebebeb" offset=".5"/>
      <stop id="stop29688" stop-color="#c4c4c4" offset=".7957"/>
      <stop id="stop29686" stop-color="#595959" offset="1"/>
    </radialGradient>
    <radialGradient id="radialGradient2869" gradientUnits="userSpaceOnUse" cy="619.24" cx="-884.4" gradientTransform="matrix(.010167 1.1381 -1.2531 .0080473 1147.1 1734.9)" r="218.05">
      <stop id="stop3542" stop-color="#eaad00" offset="0"/>
      <stop id="stop3544" stop-color="#be5600" offset=".56395"/>
      <stop id="stop3546" offset="1"/>
    </radialGradient>
    <radialGradient id="radialGradient3653" gradientUnits="userSpaceOnUse" cy="619.24" cx="-884.4" gradientTransform="matrix(-.027758 .88960 -.67910 -.021925 758.08 1534.1)" r="218.05">
      <stop id="stop3552" stop-color="#eaad00" stop-opacity="0" offset="0"/>
      <stop id="stop3554" stop-color="#be5600" stop-opacity="0" offset=".56395"/>
      <stop id="stop3556" stop-opacity=".29661" offset="1"/>
    </radialGradient>
  </defs>
  <g id="layer1" transform="translate(-165.61 -88.402)">
    <path id="path2976" d="m351.94 553.05c-123.34 1.71-142.25 25.62-142.25 67.62 0 60.76 12.39 56.47 10.37 106.18-1.81 44.41-52.95 115.79-53.94 183.35-0.01 0.66-0.04 1.32-0.04 1.99v1.2c0.01 1.42 0.03 2.83 0.08 4.21 0.18 7.05 0.8 13.65 1.87 19.84 0.02 0.11 0.06 0.22 0.08 0.33 0.22 1.27 0.46 2.5 0.72 3.72 0.06 0.3 0.1 0.61 0.16 0.91 0.21 0.95 0.45 1.88 0.68 2.81 0.2 0.88 0.41 1.74 0.63 2.6 20.88 80.09 114.72 80.79 177.89 80.69h17.7c63.16 0.1 157.01-0.6 177.88-80.69 0.38-1.46 0.75-2.93 1.08-4.44 0.19-0.84 0.35-1.69 0.52-2.55 1.45-7.15 2.33-14.87 2.55-23.22 0.05-1.59 0.08-3.21 0.08-4.85 0-0.85-0.02-1.7-0.04-2.55-1-67.56-52.03-136.29-53.94-183.35s19.07-87.62 6.02-111.69c-13.63-25.16-39.38-27.56-71.71-2.5-3.33 2.58-44.84 27.4-43.01-51.76-15.85-2.15-31.63-7.83-33.38-7.85z" fill-rule="evenodd" stroke="#999" stroke-width=".94328px" fill="url(#radialGradient2869)"/>
    <path id="path2879" d="m351.97 554.81c-122.42 1.7-141.19 25.43-141.19 67.12 0 60.31 12.3 56.05 10.29 105.39-1.79 44.08-52.55 114.94-53.54 181.99-0.01 0.66-0.04 1.32-0.04 1.98v1.19c0.01 1.41 0.04 2.81 0.08 4.18 0.18 7 0.8 13.55 1.86 19.69 0.02 0.11 0.06 0.22 0.08 0.34 0.22 1.25 0.46 2.47 0.71 3.69 0.06 0.29 0.1 0.6 0.16 0.89 0.21 0.95 0.45 1.88 0.67 2.8 0.21 0.87 0.42 1.73 0.64 2.57 20.72 79.46 113.87 80.16 176.56 80.16h17.57c62.7 0 155.85-0.7 176.57-80.16 0.38-1.44 0.74-2.9 1.07-4.4 0.18-0.83 0.35-1.68 0.51-2.53 1.45-7.09 2.32-14.76 2.54-23.05 0.05-1.58 0.07-3.18 0.08-4.81-0.01-0.85-0.02-1.69-0.04-2.54-0.99-67.05-51.64-135.27-53.54-181.99-1.9-46.71 18.93-86.96 5.97-110.86-13.53-24.97-39.08-27.36-71.18-2.48-3.3 2.56-44.5 27.2-42.69-51.38-15.73-2.14-31.4-7.77-33.14-7.79z" fill-rule="evenodd" stroke="#fff" stroke-width="2.191" fill="url(#radialGradient3653)"/>
    <g id="g3860">
      <g id="g3699" stroke-width="0" transform="matrix(-.27904 0 0 .27904 345.37 103.96)">
        <path id="path3701" d="m-231.22 6.6395c-16.23 7.2555-27.34 21.816-27.34 38.588s11.11 31.333 27.34 38.588 20.74 1.02 26.94-3.43c10.51-7.552 8-35.158 8-35.158s2.51-27.607-8-35.158c-6.2-4.4511-26.94-3.4305-26.94-3.4305z"/>
        <g id="g3703" transform="matrix(.48544 0 0 .50794 -111.48 22.772)">
          <rect id="rect3705" rx="1.5786" ry="9.2266" height="45" width="5.7143" y="24.505" x="-175" fill="url(#linearGradient3869)"/>
          <path id="path3707" fill="url(#linearGradient3871)" d="m-169.14 28.791l66.13-2c0.88 0 1.58 6.115 1.58 11.226v19.404c0 5.112-0.7 11.227-1.58 11.227l-66.13-2c-0.87 0-1.57-4.115-1.57-9.227v-19.404c0-5.111 0.7-9.226 1.57-9.226z"/>
        </g>
        <path id="path3709" fill="#ccc" d="m-257.16 35.746c-0.92 3.271-1.4 6.675-1.4 10.187s0.48 6.947 1.4 10.219v-20.406z"/>
      </g>
      <g id="g3687" stroke-width="0" transform="matrix(-.27904 0 0 .27904 343.77 137.69)">
        <path id="path3689" d="m-231.22 6.6395c-16.23 7.2555-27.34 21.816-27.34 38.588s11.11 31.333 27.34 38.588 20.74 1.02 26.94-3.43c10.51-7.552 8-35.158 8-35.158s2.51-27.607-8-35.158c-6.2-4.4511-26.94-3.4305-26.94-3.4305z"/>
        <g id="g3691" transform="matrix(.48544 0 0 .50794 -111.48 22.772)">
          <rect id="rect3693" rx="1.5786" ry="9.2266" height="45" width="5.7143" y="24.505" x="-175" fill="url(#linearGradient3869)"/>
          <path id="path3695" fill="url(#linearGradient3871)" d="m-169.14 28.791l66.13-2c0.88 0 1.58 6.115 1.58 11.226v19.404c0 5.112-0.7 11.227-1.58 11.227l-66.13-2c-0.87 0-1.57-4.115-1.57-9.227v-19.404c0-5.111 0.7-9.226 1.57-9.226z"/>
        </g>
        <path id="path3697" fill="#ccc" d="m-257.16 35.746c-0.92 3.271-1.4 6.675-1.4 10.187s0.48 6.947 1.4 10.219v-20.406z"/>
      </g>
      <g id="g3675" stroke-width="0" transform="matrix(-.27904 0 0 .27904 340.56 171.42)">
        <path id="path3677" d="m-231.22 6.6395c-16.23 7.2555-27.34 21.816-27.34 38.588s11.11 31.333 27.34 38.588 20.74 1.02 26.94-3.43c10.51-7.552 8-35.158 8-35.158s2.51-27.607-8-35.158c-6.2-4.4511-26.94-3.4305-26.94-3.4305z"/>
        <g id="g3679" transform="matrix(.48544 0 0 .50794 -111.48 22.772)">
          <rect id="rect3681" rx="1.5786" ry="9.2266" height="45" width="5.7143" y="24.505" x="-175" fill="url(#linearGradient3869)"/>
          <path id="path3683" fill="url(#linearGradient3871)" d="m-169.14 28.791l66.13-2c0.88 0 1.58 6.115 1.58 11.226v19.404c0 5.112-0.7 11.227-1.58 11.227l-66.13-2c-0.87 0-1.57-4.115-1.57-9.227v-19.404c0-5.111 0.7-9.226 1.57-9.226z"/>
        </g>
        <path id="path3685" fill="#ccc" d="m-257.16 35.746c-0.92 3.271-1.4 6.675-1.4 10.187s0.48 6.947 1.4 10.219v-20.406z"/>
      </g>
      <g id="g3659" stroke-width="0" transform="matrix(.27904 0 0 .27904 375.19 171.42)">
        <path id="path3661" d="m-231.22 6.6395c-16.23 7.2555-27.34 21.816-27.34 38.588s11.11 31.333 27.34 38.588 20.74 1.02 26.94-3.43c10.51-7.552 8-35.158 8-35.158s2.51-27.607-8-35.158c-6.2-4.4511-26.94-3.4305-26.94-3.4305z"/>
        <g id="g3663" transform="matrix(.48544 0 0 .50794 -111.48 22.772)">
          <rect id="rect3665" rx="1.5786" ry="9.2266" height="45" width="5.7143" y="24.505" x="-175" fill="url(#linearGradient3869)"/>
          <path id="path3667" fill="url(#linearGradient3871)" d="m-169.14 28.791l66.13-2c0.88 0 1.58 6.115 1.58 11.226v19.404c0 5.112-0.7 11.227-1.58 11.227l-66.13-2c-0.87 0-1.57-4.115-1.57-9.227v-19.404c0-5.111 0.7-9.226 1.57-9.226z"/>
        </g>
        <path id="path3669" fill="#ccc" d="m-257.16 35.746c-0.92 3.271-1.4 6.675-1.4 10.187s0.48 6.947 1.4 10.219v-20.406z"/>
      </g>
      <g id="g3643" stroke-width="0" transform="matrix(.27904 0 0 .27904 371.97 137.69)">
        <path id="path3645" d="m-231.22 6.6395c-16.23 7.2555-27.34 21.816-27.34 38.588s11.11 31.333 27.34 38.588 20.74 1.02 26.94-3.43c10.51-7.552 8-35.158 8-35.158s2.51-27.607-8-35.158c-6.2-4.4511-26.94-3.4305-26.94-3.4305z"/>
        <g id="g3647" transform="matrix(.48544 0 0 .50794 -111.48 22.772)">
          <rect id="rect3649" rx="1.5786" ry="9.2266" height="45" width="5.7143" y="24.505" x="-175" fill="url(#linearGradient3869)"/>
          <path id="path3651" fill="url(#linearGradient3871)" d="m-169.14 28.791l66.13-2c0.88 0 1.58 6.115 1.58 11.226v19.404c0 5.112-0.7 11.227-1.58 11.227l-66.13-2c-0.87 0-1.57-4.115-1.57-9.227v-19.404c0-5.111 0.7-9.226 1.57-9.226z"/>
        </g>
        <path id="path3653" fill="#ccc" d="m-257.16 35.746c-0.92 3.271-1.4 6.675-1.4 10.187s0.48 6.947 1.4 10.219v-20.406z"/>
      </g>
      <g id="g3628" stroke-width="0" transform="matrix(.27904 0 0 .27904 370.37 103.96)">
        <path id="path3572" d="m-231.22 6.6395c-16.23 7.2555-27.34 21.816-27.34 38.588s11.11 31.333 27.34 38.588 20.74 1.02 26.94-3.43c10.51-7.552 8-35.158 8-35.158s2.51-27.607-8-35.158c-6.2-4.4511-26.94-3.4305-26.94-3.4305z"/>
        <g id="g3611" transform="matrix(.48544 0 0 .50794 -111.48 22.772)">
          <rect id="rect3582" rx="1.5786" ry="9.2266" height="45" width="5.7143" y="24.505" x="-175" fill="url(#linearGradient3869)"/>
          <path id="rect3594" fill="url(#linearGradient3871)" d="m-169.14 28.791l66.13-2c0.88 0 1.58 6.115 1.58 11.226v19.404c0 5.112-0.7 11.227-1.58 11.227l-66.13-2c-0.87 0-1.57-4.115-1.57-9.227v-19.404c0-5.111 0.7-9.226 1.57-9.226z"/>
        </g>
        <path id="path3623" fill="#ccc" d="m-257.16 35.746c-0.92 3.271-1.4 6.675-1.4 10.187s0.48 6.947 1.4 10.219v-20.406z"/>
      </g>
      <path id="path3993" d="m357.8 88.403c-6.14 0-16.38 1.357-25.07 2.718-8.68 1.36-15.83 2.719-15.83 2.719l8.85 114.94 15.42 28.53h0.1l0.09 0.19 16.44-0.1 16.44 0.1 0.09-0.19h0.1l15.42-28.53 8.85-114.94s-7.15-1.359-15.83-2.719c-0.01-0.001-0.03 0.002-0.04 0-4.33-0.679-9.05-1.364-13.45-1.875-0.01-0.001-0.02 0.002-0.03 0-1.09-0.126-2.16-0.24-3.21-0.343-0.01-0.001-0.02 0.001-0.03 0-1.04-0.103-2.04-0.208-3.01-0.282-0.01 0-0.02 0.001-0.03 0-0.97-0.073-1.89-0.147-2.76-0.187-0.01-0.001-0.02 0-0.04 0-0.88-0.04-1.7-0.031-2.47-0.031z" fill="#280b0b"/>
      <g id="g3740" transform="matrix(.11946 -.013243 .017179 .092088 427.03 86.208)">
        <path id="text3735" d="m-702.81 27.341c10.97 0 18.92 1.871 23.87 5.613 5.08 3.742 7.62 7.483 7.62 11.225 0 1.416-1 4.4-3.01 8.951-3.2 6.472-7.22 12.136-12.03 16.99-4.82 4.753-8.83 7.939-12.04 9.557l-4.61 2.427c-0.67-1.517-1-2.326-1-2.427 0-0.405 0.13-0.708 0.4-0.91l4.01-2.731c2.81-1.719 6.22-4.753 10.23-9.102 4.01-4.45 7.22-9.253 9.63-14.411 1.2-2.832 1.8-5.613 1.8-8.344 0-3.742-1.53-6.927-4.61-9.557-2.94-2.629-8.02-3.944-15.25-3.944-6.68 0-12.9 1.011-18.65 3.034-5.62 1.922-10.3 4.501-14.04 7.737-3.75 3.135-6.76 6.219-9.03 9.253-2.27 2.933-4.21 5.967-5.82 9.102-0.8 1.821-1.54 3.742-2.2 5.765-0.67 2.023-1.27 4.096-1.81 6.22-0.53 2.022-1.07 4.702-1.6 8.04-0.41 3.337-0.74 7.18-1.01 11.529 0 4.45 1.14 8.394 3.41 11.832 2.41 3.34 5.42 5.82 9.03 7.43 3.74 1.62 7.29 2.84 10.63 3.64 3.48 0.71 6.76 1.07 9.83 1.07 11.1 0 20.66-4.96 28.69-14.87 3.74-5.461 6.48-10.215 8.22-14.26 0.8-1.618 1.54-3.236 2.21-4.854 0.67-1.72 1.13-2.832 1.4-3.338 0.67-1.112 1.81-1.668 3.41-1.668 1.34 0 2.54 0.455 3.61 1.365 1.21 0.91 1.81 2.174 1.81 3.792-0.27 2.225-0.8 4.197-1.61 5.917-0.8 1.618-1.73 3.286-2.8 5.006-0.41 0.809-2.08 3.135-5.02 6.978-2.81 4.752-8.49 16.082-17.05 33.982-8.43 18-13.31 28.16-14.64 30.49-4.15 7.58-8.7 12.84-13.65 15.78-5.61 2.83-12.37 4.24-20.26 4.24-6.28 0-13.24-1.66-20.86-5-10.43-4.35-15.64-9.81-15.64-16.39 0-5.86 3.61-8.79 10.83-8.79 6.15 0 11.5 1.72 16.05 5.15 0.26 0.21 1.73 2.03 4.41 5.47 0.8 1.01 1.34 2.32 1.6 3.94l-0.6 0.45c-0.53 0.31-1.2 0.56-2 0.76-0.67 0.31-1.48 0.46-2.41 0.46-1.47 0-2.61-0.36-3.41-1.06 0-0.61 0.07-1.42 0.2-2.43s0.2-1.72 0.2-2.12c0-1.62-0.8-3.44-2.41-5.47-0.67-0.91-1.94-1.66-3.81-2.27-1.74-0.61-3.41-0.91-5.01-0.91-1.88 0-3.48 1.06-4.82 3.18-1.34 2.13-2 4.45-2 6.98 0 4.65 3.27 8.45 9.82 11.38 6.83 3.03 13.45 4.55 19.86 4.55 4.28 0 8.56-0.96 12.84-2.88 4.55-2.02 9.16-7.28 13.84-15.78 4.82-8.49 9.57-18.35 14.25-29.58 4.81-11.23 8.22-18.56 10.23-22-0.81 0.51-2.01 1.12-3.61 1.82-1.61 0.71-3.28 1.37-5.02 1.98-1.74 0.6-4.08 1.16-7.02 1.66-2.94 0.41-6.22 0.61-9.83 0.61s-7.15-0.3-10.63-0.91-7.09-1.67-10.83-3.18c-3.61-1.52-6.82-3.44-9.63-5.77-2.68-2.32-4.88-5.36-6.62-9.101-1.74-3.843-2.61-8.141-2.61-12.894 0-9.203 1.14-16.687 3.41-22.452 2.27-5.865 5.62-11.478 10.03-16.838 1.07-1.315 2.68-2.882 4.82-4.703 2.27-1.82 5.21-3.893 8.82-6.22 3.61-2.326 8.03-4.247 13.24-5.764 5.35-1.618 10.77-2.427 16.25-2.427m93.88 49.15c0 3.742-1.14 7.585-3.41 11.529-2.27 3.945-3.88 6.372-4.81 7.282-8.83 25.488-18.33 48.898-28.49 70.238-6.69 11.53-16.11 17.29-28.28 17.29-2.14 0-3.95-0.1-5.42-0.3-1.6-0.1-3.34-0.41-5.22-0.91-2-0.51-3.47-1.42-4.41-2.73-1.07-1.22-1.6-2.78-1.6-4.7 0-2.33 0.33-4.15 1-5.47 0.67-1.31 2.01-2.88 4.01-4.7 2.01-1.82 4.82-4.35 8.43-7.58 2.67-2.53 5.41-5.01 8.22-7.44 2.94-2.42 5.95-5.1 9.03-8.04 3.21-2.83 7.35-6.82 12.44-11.98-5.49 5.86-11.44 12.03-17.86 18.51-6.28 6.57-10.23 10.77-11.83 12.59-1.74 1.92-3.21 4.04-4.42 6.37-1.33 2.32-2 4.75-2 7.28 0 2.02 0.87 3.64 2.61 4.85 1.73 1.32 3.87 1.98 6.41 1.98 3.62 0 7.16-0.81 10.64-2.43 3.74-1.82 7.55-6.07 11.43-12.74 3.88-6.68 7.36-14.31 10.43-22.91 3.21-8.6 6.82-17.85 10.83-27.76-1.47 0.91-3.94 1.62-7.42 2.12-3.48 0.51-6.35 0.76-8.62 0.76-9.1 0-14.38-5.97-15.85-17.899-1.34 0.609-2.68 1.769-4.01 3.489-0.4 0.51-0.87 1.16-1.41 1.97-0.53 0.81-0.87 1.32-1 1.52 0.13-0.3 0.27-0.86 0.4-1.67s0.33-1.57 0.6-2.27c0.27-0.71 0.67-1.32 1.21-1.83 0.26-0.4 0.8-1.007 1.6-1.816 0.8-0.91 1.61-1.82 2.41-2.73 0.27-1.113 0.67-2.377 1.2-3.793 0.67-1.517 1.14-2.68 1.41-3.489 2-5.865 3.74-9.961 5.21-12.287 1.47-2.428 3.81-3.641 7.02-3.641 1.07 0 1.87 0.05 2.41 0.152 2.27 0 3.41 1.061 3.41 3.185 0 0.91-0.2 2.073-0.6 3.489s-1.61 3.54-3.61 6.372c-1.88 2.73-4.35 5.309-7.43 7.736-1.6 3.742-2.4 7.382-2.4 10.922 0 6.98 3.27 10.47 9.83 10.47 6.42 0 12.84-4.5 19.25-13.5 0.67-1.62 1.74-4.504 3.21-8.65 1.61-4.147 3.08-7.737 4.42-10.771 1.33-3.135 2.61-5.714 3.81-7.736 1.07-1.012 2.07-1.619 3.01-1.821 1.74 0 2.87 0.253 3.41 0.759 0.53 0.404 0.8 1.314 0.8 2.73m-37.71 0.152c-0.94 0.506-1.81 1.517-2.61 3.034-0.67 1.517-1.4 3.337-2.21 5.461-0.8 2.124-1.33 3.489-1.6 4.096 1.74-1.416 3.34-3.337 4.81-5.765 1.47-2.427 2.21-4.298 2.21-5.612 0-0.607-0.2-1.012-0.6-1.214m99.5 6.978c0 3.843-1.07 8.293-3.21 13.35-2.01 5.059-5.09 9.509-9.23 13.349 0.53 0.2 1.2 0.3 2 0.3 2.54 0 6.09-1.31 10.64-3.94-3.62 4.04-8.1 6.07-13.44 6.07-0.81 0-1.34-0.05-1.61-0.15-0.53 0.8-2.14 1.87-4.81 3.18-2.54 1.21-4.95 1.82-7.23 1.82-2.27 0-4.21-0.55-5.81-1.67-1.61-1.21-2.41-2.27-2.41-3.18 0-2.13 0.67-3.9 2.01-5.31 1.47-1.52 3.61-2.28 6.42-2.28 2.94 0 6.15 1.22 9.62 3.64 1.88-2.73 3.82-6.62 5.82-11.678 2.01-5.157 3.01-9.708 3.01-13.653 0-5.461-1.74-8.191-5.21-8.191-1.74 0-3.62 0.455-5.62 1.365-2.01 0.91-4.01 2.174-6.02 3.792-2.01 1.619-3.94 3.338-5.82 5.158-1.74 1.719-3.47 3.641-5.21 5.765-1.74 2.022-3.15 3.742-4.22 5.158-1.07 1.415-2.07 2.831-3 4.244l-1.61 2.13c-0.67 7.48-4.55 20.32-11.63 38.53-6.96 18.3-12.57 30.14-16.85 35.5-2.55 3.54-5.02 5.31-7.43 5.31-1.74 0-3.14-0.61-4.21-1.82-1.07-1.12-1.6-2.48-1.6-4.1 0-0.61 0.46-2.68 1.4-6.22 0.8-3.44 2.41-8.65 4.81-15.63 2.28-6.87 6.29-15.72 12.04-26.54 5.75-10.72 12.57-21.75 20.46-33.073 0.54-1.416 1.21-4.45 2.01-9.102 0.93-4.652 1.4-7.737 1.4-9.254 0-0.505-0.33-0.758-1-0.758-0.8 0.202-1.74 1.871-2.81 5.006-0.94 3.135-2.67 7.281-5.21 12.439-2.41 5.057-5.62 9.562-9.63 13.502 3.61-4.15 7.02-10.721 10.23-19.722 3.34-9 5.68-13.501 7.02-13.501 0-0.101 0.67-0.151 2-0.151 1.21 0 1.81 1.213 1.81 3.64 0 4.855-0.74 9.911-2.21 15.17 3.61-5.158 7.63-9.253 12.04-12.287s7.96-4.905 10.63-5.613c2.68-0.708 5.08-1.062 7.22-1.062 3.75 0 7.09 0.758 10.03 2.275s4.42 4.248 4.42 8.192m-48.55 23.819c-7.76 10.82-14.71 23.76-20.86 38.83s-9.23 24.22-9.23 27.46c0.54 0.2 0.87 0.3 1 0.3 1.74 0 4.82-4.9 9.23-14.71 4.41-9.71 8.29-19.52 11.64-29.43 3.47-9.91 6.21-17.4 8.22-22.45m22.47-0.15c-3.75 0-5.62 1.82-5.62 5.46 0 1.41 1.54 2.22 4.61 2.42 1.48 0 2.75-0.2 3.82-0.6 1.07-0.41 1.87-0.91 2.4-1.52 0.67-0.71 1.47-1.47 2.41-2.27-1.07-0.81-2.47-1.57-4.21-2.28-1.61-0.81-2.74-1.21-3.41-1.21m54.16-34.136h0.2c1.07 0 3.41 1.618 7.02 4.854 0.67 3.439 1.2 5.664 1.61 6.675 0.53 1.416 2.2 4.248 5.01 8.495 2.94 4.147 4.48 7.732 4.61 10.772-0.13 4.95-2.47 8.49-7.02 10.62-4.41 2.02-9.29 3.03-14.64 3.03-4.01 0-7.42-0.5-10.23-1.52-2.81-1.11-4.82-2.27-6.02-3.48-1.2-1.22-2.07-2.38-2.61-3.49l-0.6-1.52c0-0.51 0.07-1.01 0.2-1.52 0.14 0 0.54-0.05 1.21-0.15 0.8-0.2 1.33-0.3 1.6-0.3 1.61 0 3.88 0.6 6.82 1.82 0.8 0.6 1.2 1.16 1.2 1.67 0 0.5-0.53 1.11-1.6 1.82-1.07 0.7-1.61 1.26-1.61 1.67 0 0.8 0.94 1.51 2.81 2.12 1.88 0.51 3.95 0.76 6.22 0.76 3.08 0 6.42-0.96 10.03-2.88 3.61-1.93 5.42-5.01 5.42-9.26 0-3.74-2.68-8.797-8.03-15.168-0.8-0.91-1.4-1.82-1.8-2.731-0.27-1.011-0.47-1.516-0.6-1.517l-11.04 7.889-8.82 7.888c1.47-1.719 2.81-3.287 4.01-4.702 1.2-1.517 1.87-2.377 2.01-2.579 0.26-0.304 0.6-0.658 1-1.062l0.6-0.759c0.13 0 0.54-0.354 1.2-1.062 0.81-0.708 1.68-1.517 2.61-2.427 1.87-1.719 3.81-3.995 5.82-6.826 0.4-0.506 0.94-1.77 1.6-3.793 0.67-2.124 1.27-3.236 1.81-3.337m81.84 3.337c0 3.742-1.13 7.585-3.41 11.529-2.27 3.945-3.87 6.372-4.81 7.282-8.83 25.488-18.32 48.898-28.49 70.238-6.68 11.53-16.11 17.29-28.28 17.29-2.14 0-3.95-0.1-5.42-0.3-1.6-0.1-3.34-0.41-5.21-0.91-2.01-0.51-3.48-1.42-4.42-2.73-1.07-1.22-1.6-2.78-1.6-4.7 0-2.33 0.33-4.15 1-5.47 0.67-1.31 2.01-2.88 4.01-4.7 2.01-1.82 4.82-4.35 8.43-7.58 2.67-2.53 5.42-5.01 8.22-7.44 2.95-2.42 5.96-5.1 9.03-8.04 3.21-2.83 7.36-6.82 12.44-11.98-5.48 5.86-11.44 12.03-17.85 18.51-6.29 6.57-10.24 10.77-11.84 12.59-1.74 1.92-3.21 4.04-4.41 6.37-1.34 2.32-2.01 4.75-2.01 7.28 0 2.02 0.87 3.64 2.61 4.85 1.74 1.32 3.88 1.98 6.42 1.98 3.61 0 7.15-0.81 10.63-2.43 3.74-1.82 7.56-6.07 11.43-12.74 3.88-6.68 7.36-14.31 10.44-22.91 3.2-8.6 6.82-17.85 10.83-27.76-1.47 0.91-3.95 1.62-7.42 2.12-3.48 0.51-6.36 0.76-8.63 0.76-9.09 0-14.38-5.97-15.85-17.899-1.34 0.609-2.67 1.769-4.01 3.489-0.4 0.51-0.87 1.16-1.4 1.97-0.54 0.81-0.87 1.32-1.01 1.52 0.14-0.3 0.27-0.86 0.4-1.67 0.14-0.81 0.34-1.57 0.61-2.27 0.26-0.71 0.66-1.32 1.2-1.83 0.27-0.4 0.8-1.007 1.6-1.816 0.81-0.91 1.61-1.82 2.41-2.73 0.27-1.113 0.67-2.377 1.21-3.793 0.66-1.517 1.13-2.68 1.4-3.489 2.01-5.865 3.74-9.961 5.21-12.287 1.48-2.428 3.82-3.641 7.03-3.641 1.07 0 1.87 0.05 2.4 0.152 2.28 0 3.41 1.061 3.41 3.185 0 0.91-0.2 2.073-0.6 3.489s-1.6 3.54-3.61 6.372c-1.87 2.73-4.35 5.309-7.42 7.736-1.61 3.742-2.41 7.382-2.41 10.922 0 6.98 3.28 10.47 9.83 10.47 6.42 0 12.84-4.5 19.26-13.5 0.67-1.62 1.74-4.504 3.21-8.65 1.6-4.147 3.07-7.737 4.41-10.771 1.34-3.135 2.61-5.714 3.81-7.736 1.07-1.012 2.08-1.619 3.01-1.821 1.74 0 2.88 0.253 3.41 0.759 0.54 0.404 0.8 1.314 0.8 2.73m-37.71 0.152c-0.93 0.506-1.8 1.517-2.61 3.034-0.67 1.517-1.4 3.337-2.2 5.461-0.81 2.124-1.34 3.489-1.61 4.096 1.74-1.416 3.35-3.337 4.82-5.765 1.47-2.427 2.2-4.298 2.2-5.612 0-0.607-0.2-1.012-0.6-1.214" fill="#fbff00"/>
      </g>
      <path id="path3995" transform="matrix(1.0256 0 0 1.0256 1228.1 660.76)" d="m-793.44 37.501a55.264 55.264 0 1 1 -110.53 0 55.264 55.264 0 1 1 110.53 0z"/>
      <g id="g3997" transform="matrix(1.0256 0 0 1.0256 641.09 481.75)">
        <g id="g3999">
          <path id="path4001" d="m-278.47 140.19c-0.39 0.01-0.77 0.03-1.16 0.05l-0.71 14.34c1.21-0.08 2.43-0.13 3.67-0.13l-1.8-14.26zm6.41 0.11l-2.22 14.17c1.23 0.05 2.45 0.16 3.66 0.28l-0.27-14.37c-0.39-0.03-0.77-0.06-1.17-0.08zm-11.35 0.21c-0.39 0.04-0.78 0.09-1.17 0.14l0.3 14.34c1.2-0.16 2.42-0.29 3.64-0.38l-2.77-14.1zm16.3 0.27l-3.18 13.99c1.21 0.13 2.42 0.29 3.61 0.49l0.71-14.34c-0.38-0.05-0.76-0.09-1.14-0.14zm-23.8 0.87c-0.37 0.08-0.76 0.14-1.14 0.22l1.79 14.26c1.18-0.29 2.36-0.54 3.56-0.76l-4.21-13.72zm31.24 0.47l-4.64 13.6c1.2 0.26 2.38 0.54 3.55 0.87l2.23-14.18c-0.38-0.09-0.76-0.2-1.14-0.29zm-36.07 0.7c-0.37 0.11-0.75 0.22-1.12 0.33l2.77 14.07c1.16-0.37 2.33-0.71 3.51-1.01l-5.16-13.39zm40.85 0.65l-5.57 13.21c1.18 0.33 2.34 0.7 3.48 1.11l3.2-13.96c-0.36-0.13-0.74-0.24-1.11-0.36zm-48.05 1.8c-0.36 0.14-0.73 0.28-1.09 0.43l4.27 13.69c1.1-0.49 2.23-0.96 3.37-1.38l-6.55-12.74zm55.14 0.84l-6.9 12.55c1.13 0.46 2.25 0.96 3.34 1.49l4.62-13.55c-0.35-0.16-0.7-0.34-1.06-0.49zm-59.68 1.14c-0.35 0.17-0.68 0.37-1.03 0.54l5.16 13.37c1.08-0.58 2.17-1.13 3.29-1.63l-7.42-12.28zm64.16 1l-7.77 12.04c1.1 0.53 2.18 1.11 3.24 1.71l5.56-13.23c-0.33-0.18-0.69-0.34-1.03-0.52zm-70.81 2.64c-0.33 0.2-0.63 0.42-0.95 0.62l6.54 12.74c1.01-0.67 2.03-1.31 3.07-1.93l-8.66-11.43zm77.36 1.19l-8.99 11.17c1.03 0.65 2.03 1.33 3.01 2.04l6.93-12.55c-0.32-0.22-0.63-0.44-0.95-0.66zm-81.46 1.58c-0.32 0.23-0.64 0.45-0.95 0.68l7.44 12.25c0.96-0.75 1.93-1.46 2.93-2.15l-9.42-10.78zm85.48 1.3l-9.73 10.52c0.99 0.71 1.95 1.45 2.88 2.22l7.77-12c-0.31-0.25-0.61-0.5-0.92-0.74zm-91.41 3.43c-0.29 0.26-0.58 0.52-0.86 0.78l8.66 11.44c0.88-0.85 1.78-1.68 2.72-2.47l-10.52-9.75zm97.17 1.46l-10.79 9.43c0.91 0.82 1.78 1.68 2.64 2.55l8.99-11.16c-0.28-0.27-0.56-0.55-0.84-0.82zm-100.75 1.96c-0.27 0.28-0.55 0.56-0.82 0.84l9.43 10.78c0.81-0.89 1.66-1.76 2.53-2.6l-11.14-9.02zm104.22 1.57l-11.4 8.67c0.84 0.87 1.65 1.79 2.44 2.72l9.75-10.52c-0.26-0.29-0.52-0.58-0.79-0.87zm-109.22 4.13c-0.24 0.31-0.49 0.61-0.73 0.93l10.51 9.72c0.72-0.99 1.48-1.94 2.25-2.88l-12.03-7.77zm114.06 1.71l-12.25 7.42c0.75 0.97 1.48 1.95 2.17 2.96l10.79-9.42c-0.23-0.32-0.48-0.64-0.71-0.96zm-117.02 2.29c-0.22 0.32-0.44 0.65-0.65 0.97l11.16 8.97c0.65-1.03 1.33-2.03 2.04-3.02l-12.55-6.92zm119.84 1.79l-12.74 6.55c0.69 1.01 1.31 2.06 1.93 3.12l11.44-8.67c-0.21-0.33-0.41-0.67-0.63-1zm-123.81 4.64c-0.18 0.34-0.33 0.69-0.51 1.04l12.03 7.76c0.54-1.09 1.11-2.15 1.71-3.2l-13.23-5.6zm127.56 1.96l-13.36 5.16c0.57 1.08 1.1 2.17 1.6 3.29l12.28-7.42c-0.17-0.35-0.34-0.69-0.52-1.03zm-129.73 2.5c-0.16 0.35-0.33 0.7-0.49 1.06l12.55 6.92c0.46-1.11 0.95-2.23 1.47-3.31l-13.53-4.67zm131.82 1.98l-13.71 4.24c0.49 1.11 0.96 2.25 1.38 3.39l12.77-6.54c-0.15-0.36-0.29-0.73-0.44-1.09zm-134.62 5.08c-0.12 0.37-0.23 0.74-0.35 1.11l13.23 5.55c0.34-1.17 0.71-2.32 1.11-3.45l-13.99-3.21zm137.18 2.07l-14.1 2.77c0.37 1.15 0.73 2.32 1.03 3.5l13.39-5.16c-0.1-0.38-0.21-0.74-0.32-1.11zm-138.56 2.68c-0.1 0.39-0.21 0.76-0.3 1.15l13.61 4.64c0.25-1.2 0.54-2.36 0.87-3.53l-14.18-2.26zm139.81 2.1l-14.24 1.82c0.3 1.17 0.55 2.35 0.76 3.55l13.72-4.23c-0.08-0.38-0.16-0.77-0.24-1.14zm-141.31 5.37c-0.05 0.38-0.11 0.76-0.16 1.15l14.02 3.17c0.12-1.21 0.28-2.42 0.49-3.61l-14.35-0.71zm142.56 2.12l-14.35 0.3c0.17 1.2 0.29 2.42 0.39 3.64l14.09-2.77c-0.04-0.39-0.09-0.78-0.13-1.17zm-128.73 2.53l-14.37 0.27c-0.03 0.39-0.06 0.78-0.08 1.17l14.18 2.2c0.04-1.22 0.15-2.44 0.27-3.64zm114.79 1.71c0.09 1.21 0.16 2.42 0.17 3.64l14.23-1.77c-0.01-0.39-0.04-0.77-0.06-1.16l-14.34-0.71zm-115.09 4.37l-14.23 1.77c0.01 0.39 0.04 0.78 0.05 1.17l14.32 0.7c-0.09-1.2-0.13-2.41-0.14-3.64zm115.2 1.72c-0.04 1.22-0.12 2.43-0.24 3.64l14.34-0.28c0.03-0.39 0.06-0.77 0.08-1.16l-14.18-2.2zm-115.04 2.25l-14.09 2.77c0.03 0.38 0.09 0.76 0.13 1.14l14.35-0.3c-0.17-1.19-0.29-2.4-0.39-3.61zm114.77 1.71c-0.13 1.21-0.29 2.43-0.49 3.61l14.32 0.71c0.05-0.39 0.11-0.78 0.16-1.17l-13.99-3.15zm-113.98 4.32l-13.74 4.24 0.24 1.14 14.24-1.82c-0.29-1.17-0.52-2.36-0.74-3.56zm113.03 1.68c-0.25 1.19-0.55 2.35-0.87 3.51l14.18 2.25c0.09-0.37 0.18-0.76 0.27-1.14l-13.58-4.62zm-112.21 2.2l-13.39 5.17c0.1 0.37 0.24 0.73 0.35 1.11l14.07-2.74c-0.38-1.17-0.73-2.34-1.03-3.54zm111.23 1.66c-0.33 1.16-0.68 2.32-1.09 3.45l13.97 3.21c0.12-0.37 0.26-0.75 0.38-1.12l-13.26-5.54zm-109.41 4.16l-12.74 6.52c0.14 0.36 0.28 0.72 0.43 1.08l13.69-4.23c-0.49-1.11-0.96-2.23-1.38-3.37zm107.43 1.57c-0.46 1.13-0.94 2.25-1.47 3.34l13.53 4.65c0.16-0.36 0.33-0.7 0.49-1.06l-12.55-6.93zm-105.91 2.09l-12.28 7.39v0.03c0.17 0.35 0.34 0.69 0.52 1.03l13.36-5.16c-0.57-1.07-1.1-2.18-1.6-3.29zm104.28 1.55c-0.53 1.09-1.09 2.16-1.69 3.21l13.21 5.59c0.18-0.34 0.36-0.69 0.54-1.03l-12.06-7.77zm-101.48 3.86l-11.44 8.64c0.21 0.34 0.44 0.67 0.65 1l12.71-6.54c-0.68-1.01-1.31-2.05-1.92-3.1zm98.54 1.44c-0.64 1.03-1.32 2.03-2.03 3.01l12.55 6.93c0.21-0.32 0.44-0.63 0.65-0.95l-11.17-8.99zm-96.42 1.93l-10.79 9.4c0.23 0.31 0.45 0.63 0.68 0.95l12.25-7.42c-0.75-0.95-1.46-1.93-2.14-2.93zm94.2 1.36c-0.72 0.98-1.45 1.94-2.23 2.88l12.01 7.76c0.24-0.31 0.49-0.61 0.73-0.92l-10.51-9.72zm-90.48 3.47l-9.76 10.49c0.27 0.29 0.53 0.58 0.79 0.87l11.41-8.67c-0.84-0.87-1.66-1.77-2.44-2.69zm86.65 1.25c-0.82 0.91-1.66 1.79-2.53 2.64l11.14 8.99c0.27-0.28 0.54-0.56 0.81-0.84l-9.42-10.79zm-83.99 1.69l-8.99 11.13c0.28 0.28 0.56 0.55 0.84 0.82l10.78-9.43c-0.9-0.81-1.78-1.65-2.63-2.52zm81.22 1.16c-0.87 0.85-1.77 1.66-2.69 2.45l10.48 9.75c0.29-0.26 0.58-0.52 0.87-0.79l-8.66-11.41zm-76.77 2.94l-7.77 12.03c0.31 0.24 0.62 0.47 0.93 0.71l9.72-10.49c-0.99-0.72-1.94-1.47-2.88-2.25zm72.18 1.06c-0.97 0.75-1.93 1.48-2.94 2.17l9.43 10.78c0.31-0.22 0.64-0.44 0.95-0.67l-7.44-12.28zm-69.03 1.38l-6.92 12.53c0.32 0.21 0.63 0.43 0.95 0.65l8.99-11.14c-1.03-0.65-2.03-1.33-3.02-2.04zm65.82 0.98c-1 0.68-2.02 1.32-3.07 1.93l8.64 11.41c0.33-0.21 0.65-0.42 0.98-0.63l-6.55-12.71zm-60.71 2.28l-5.57 13.23c0.34 0.18 0.69 0.34 1.03 0.52l7.75-12.04c-1.1-0.53-2.16-1.11-3.21-1.71zm55.52 0.82c-1.07 0.57-2.17 1.12-3.28 1.63l7.41 12.27c0.35-0.16 0.69-0.36 1.03-0.54l-5.16-13.36zm-52.02 1.06l-4.61 13.55c0.35 0.16 0.7 0.34 1.06 0.49l6.9-12.55c-1.13-0.46-2.25-0.97-3.35-1.49zm48.44 0.68c-1.11 0.49-2.22 0.98-3.37 1.41l6.52 12.71c0.37-0.15 0.75-0.25 1.11-0.41l-4.26-13.71zm-42.79 1.68l-3.2 13.96c0.36 0.12 0.72 0.24 1.09 0.36l5.56-13.23c-1.16-0.34-2.31-0.69-3.45-1.09zm37.11 0.52c-1.15 0.37-2.3 0.73-3.48 1.03l5.14 13.34c0.37-0.11 0.74-0.19 1.11-0.3l-2.77-14.07zm-33.33 0.68l-2.23 14.15c0.38 0.09 0.76 0.18 1.14 0.27l4.65-13.56c-1.21-0.25-2.38-0.54-3.56-0.86zm29.5 0.43c-1.17 0.29-2.36 0.51-3.56 0.73l4.21 13.72c0.38-0.08 0.76-0.16 1.14-0.24l-1.79-14.21zm-23.58 0.87l-0.73 14.31c0.39 0.06 0.78 0.12 1.17 0.17l3.15-13.96c-1.21-0.13-2.4-0.32-3.59-0.52zm17.6 0.27c-1.19 0.17-2.4 0.29-3.61 0.38l2.74 14.07c0.39-0.04 0.79-0.09 1.17-0.13l-0.3-14.32zm-13.66 0.3l0.27 14.29c0.39 0.03 0.78 0.06 1.17 0.08l2.2-14.15c-1.22-0.05-2.44-0.1-3.64-0.22zm9.73 0.11c-1.21 0.08-2.42 0.15-3.64 0.16l1.76 14.21c0.39-0.01 0.78-0.04 1.17-0.06l0.71-14.31z" fill="#ce9b6c"/>
          <path id="path4003" d="m-270.11 140.43c-0.4-0.04-0.78-0.06-1.17-0.09l-2.36 14.17c1.21 0.06 2.43 0.15 3.66 0.29l-0.13-14.37zm6.35 0.85l-3.85 13.82c1.22 0.19 2.41 0.43 3.61 0.7l1.39-14.31c-0.38-0.07-0.76-0.15-1.15-0.21zm-11.3-1.1c-0.4-0.01-0.78 0-1.18 0l-1.36 14.28c1.21-0.03 2.43-0.01 3.66 0.04l-1.12-14.32zm16.15 2.15l-4.77 13.53c1.19 0.27 2.37 0.57 3.53 0.91l2.36-14.17c-0.37-0.1-0.74-0.17-1.12-0.27zm-23.73-1.89c-0.38 0.03-0.78 0.05-1.16 0.08l0.13 14.38c1.2-0.16 2.4-0.27 3.62-0.35l-2.59-14.11zm30.97 4.08l-6.19 12.98c1.17 0.39 2.31 0.81 3.44 1.27l3.85-13.82c-0.36-0.14-0.73-0.3-1.1-0.43zm-35.91-3.48c-0.38 0.06-0.76 0.13-1.14 0.2l1.12 14.29c1.19-0.23 2.39-0.43 3.6-0.59l-3.58-13.9zm40.5 5.38l-7.06 12.47c1.13 0.47 2.24 0.97 3.33 1.51l4.8-13.5c-0.35-0.16-0.71-0.32-1.07-0.48zm-47.93-3.78c-0.38 0.1-0.76 0.19-1.13 0.3l2.65 14.09c1.15-0.36 2.33-0.7 3.51-0.98l-5.03-13.41zm54.67 7.22l-8.31 11.67c1.08 0.58 2.12 1.21 3.15 1.87l6.16-12.93c-0.33-0.2-0.66-0.42-1-0.61zm-59.41-5.78c-0.37 0.13-0.72 0.29-1.09 0.42l3.58 13.87c1.14-0.44 2.29-0.86 3.46-1.24l-5.95-13.05zm63.61 8.43l-9.11 11.05c1.03 0.66 2.04 1.36 3.02 2.08l7.06-12.5c-0.32-0.22-0.65-0.41-0.97-0.63zm-70.64-5.59c-0.34 0.17-0.67 0.35-1.02 0.51l5.03 13.42c1.07-0.56 2.16-1.08 3.27-1.56l-7.28-12.37zm76.7 10.15l-10.22 10.05c0.95 0.76 1.86 1.55 2.76 2.37l8.33-11.66c-0.29-0.25-0.57-0.51-0.87-0.76zm-81.09-7.87c-0.34 0.19-0.69 0.37-1.03 0.57l5.98 13.03c1.03-0.63 2.08-1.23 3.16-1.8l-8.11-11.8zm84.75 11.2l-10.87 9.31c0.89 0.83 1.76 1.67 2.6 2.55l9.1-11.03c-0.27-0.28-0.54-0.56-0.83-0.83zm-91.18-7.19c-0.32 0.22-0.64 0.45-0.96 0.68l7.28 12.36c0.98-0.74 1.97-1.46 2.99-2.14l-9.31-10.9zm96.34 12.71l-11.81 8.11c0.81 0.92 1.58 1.88 2.32 2.85l10.23-10.05c-0.25-0.3-0.49-0.61-0.74-0.91zm-100.3-9.73c-0.3 0.25-0.61 0.5-0.91 0.75l8.12 11.8c0.91-0.8 1.85-1.56 2.81-2.3l-10.02-10.25zm103.34 13.64l-12.34 7.29c0.74 0.96 1.44 1.97 2.12 2.98l10.9-9.31c-0.22-0.32-0.45-0.64-0.68-0.96zm-108.97-8.55c-0.27 0.28-0.56 0.55-0.83 0.83l9.31 10.88c0.83-0.9 1.69-1.76 2.58-2.6l-11.06-9.11zm113.1 14.91l-13.03 5.95c0.64 1.05 1.24 2.1 1.81 3.19l11.81-8.11c-0.19-0.35-0.4-0.69-0.59-1.03zm-116.5-11.29c-0.26 0.3-0.51 0.6-0.76 0.9l10.05 10.2c0.76-0.95 1.55-1.87 2.37-2.76l-11.66-8.34zm118.83 15.67l-13.41 5.02c0.56 1.09 1.06 2.21 1.55 3.33l12.36-7.28c-0.16-0.36-0.33-0.72-0.5-1.07zm-123.51-9.73c-0.23 0.31-0.42 0.65-0.64 0.96l11.06 9.11c0.65-1.02 1.35-2.01 2.07-2.98l-12.49-7.09zm126.47 16.72l-13.87 3.58c0.44 1.13 0.84 2.28 1.21 3.45l13.05-5.95c-0.12-0.36-0.26-0.72-0.39-1.08zm-129.15-12.55c-0.2 0.34-0.41 0.66-0.61 1l11.67 8.33c0.58-1.06 1.19-2.11 1.84-3.12l-12.9-6.21zm130.71 17.24l-14.12 2.62c0.36 1.16 0.69 2.35 0.98 3.53l13.44-5.02c-0.1-0.38-0.2-0.75-0.3-1.13zm-134.31-10.55c-0.16 0.35-0.32 0.71-0.48 1.07l12.5 7.03c0.47-1.12 0.97-2.21 1.51-3.29l-13.53-4.81zm136.02 17.94l-14.33 1.12c0.24 1.19 0.46 2.39 0.62 3.6l13.9-3.57c-0.06-0.39-0.13-0.76-0.19-1.15zm-137.94-13.38c-0.14 0.37-0.3 0.73-0.43 1.1l12.98 6.19c0.39-1.16 0.81-2.28 1.27-3.4l-13.82-3.89zm138.62 18.28l-14.35 0.16c0.16 1.2 0.27 2.4 0.35 3.62l14.11-2.62c-0.03-0.39-0.07-0.78-0.11-1.16zm-140.97-11.03l-0.3 1.11 13.56 4.79c0.27-1.2 0.56-2.38 0.9-3.54l-14.16-2.36zm141.35 18.62l-14.28-1.37c0.02 1.22 0 2.44-0.05 3.66l14.33-1.12v-1.17zm-128.16-12.4l-14.3-1.4c-0.07 0.38-0.15 0.77-0.22 1.15l13.83 3.83c0.19-1.21 0.44-2.41 0.69-3.58zm113.82 14.99c-0.05 1.21-0.12 2.42-0.26 3.64l14.35-0.11c0.03-0.39 0.05-0.77 0.08-1.16l-14.17-2.37zm-114.82-8.99l-14.34 0.11c-0.03 0.39-0.05 0.78-0.08 1.17l14.14 2.36c0.05-1.21 0.15-2.42 0.28-3.64zm114.23 15.05c-0.19 1.21-0.41 2.4-0.67 3.59l14.28 1.39c0.07-0.39 0.15-0.77 0.22-1.15l-13.83-3.83zm-114.53-11.09l-14.32 1.12c-0.01 0.39 0 0.77 0 1.15l14.28 1.37c-0.02-1.21-0.01-2.42 0.04-3.64zm113.8 15c-0.27 1.18-0.57 2.37-0.91 3.53l14.14 2.36 0.3-1.14-13.53-4.75zm-113.71-8.92l-14.14 2.62c0.03 0.39 0.07 0.77 0.11 1.16l14.34-0.16c-0.15-1.19-0.23-2.4-0.31-3.62zm112.07 14.77c-0.39 1.14-0.82 2.27-1.27 3.38l13.82 3.88c0.14-0.36 0.27-0.74 0.4-1.1l-12.95-6.16zm-111.71-10.81l-13.9 3.57c0.06 0.39 0.15 0.76 0.22 1.15l14.29-1.1c-0.24-1.2-0.45-2.4-0.61-3.62zm110.29 14.53c-0.47 1.11-0.95 2.22-1.48 3.3l13.5 4.8c0.16-0.35 0.35-0.71 0.5-1.06l-12.52-7.04zm-109.16-8.55l-13.41 5c0.1 0.38 0.2 0.76 0.31 1.13l14.09-2.62c-0.36-1.16-0.7-2.32-0.99-3.51zm106.53 14.01c-0.59 1.07-1.2 2.12-1.85 3.15l12.9 6.18c0.2-0.33 0.41-0.66 0.61-1l-11.66-8.33zm-105.44-10.19l-13.05 5.92s-0.01 0.01-0.01 0.02c0.13 0.37 0.27 0.73 0.4 1.09l13.87-3.58c-0.44-1.13-0.84-2.29-1.21-3.45zm103.4 13.62c-0.66 1.01-1.34 2.02-2.05 2.99l12.47 7.08c0.22-0.31 0.44-0.64 0.66-0.96l-11.08-9.11zm-101.25-7.93l-12.36 7.26c0.17 0.36 0.36 0.71 0.53 1.07l13.39-5.03c-0.56-1.08-1.07-2.18-1.56-3.3zm97.72 12.85c-0.76 0.95-1.56 1.86-2.37 2.76l11.66 8.33c0.25-0.29 0.51-0.57 0.76-0.87l-10.05-10.22zm-96-9.26l-11.8 8.09c0.19 0.34 0.36 0.68 0.56 1.02l13.03-5.94c-0.63-1.04-1.23-2.09-1.79-3.17zm93.41 12.26c-0.83 0.9-1.67 1.77-2.55 2.61l11.03 9.1c0.27-0.28 0.56-0.55 0.83-0.83l-9.31-10.88zm-90.28-7.02l-10.9 9.28c0.23 0.32 0.45 0.64 0.68 0.96l12.34-7.29c-0.74-0.96-1.45-1.95-2.12-2.95zm85.92 11.28c-0.91 0.8-1.85 1.58-2.81 2.32l10.02 10.22c0.3-0.24 0.61-0.49 0.91-0.74l-8.12-11.8zm-83.61-8.06l-10.22 10.02c0.24 0.3 0.49 0.61 0.74 0.91l11.8-8.12c-0.8-0.91-1.58-1.85-2.32-2.81zm80.53 10.57c-0.96 0.73-1.95 1.44-2.95 2.11l9.28 10.9c0.32-0.22 0.64-0.45 0.96-0.68l-7.29-12.33zm-76.58-5.98l-9.11 11.05c0.27 0.28 0.55 0.54 0.83 0.81l10.87-9.29c-0.89-0.83-1.75-1.69-2.59-2.57zm71.56 9.41c-1.04 0.64-2.08 1.25-3.17 1.82l8.12 11.8c0.34-0.19 0.68-0.37 1.02-0.56l-5.97-13.06zm-68.72-6.62l-8.33 11.64c0.29 0.25 0.58 0.51 0.87 0.76l10.22-10.02c-0.95-0.77-1.86-1.56-2.76-2.38zm65.26 8.6c-1.07 0.55-2.16 1.07-3.27 1.56l7.26 12.33c0.35-0.17 0.69-0.34 1.04-0.51l-5.03-13.38zm-60.56-4.77l-7.07 12.5c0.32 0.22 0.65 0.41 0.97 0.63l9.08-11.06c-1.02-0.66-2.01-1.35-2.98-2.07zm55.05 7.24c-1.13 0.45-2.29 0.87-3.45 1.24l5.94 13.05c0.37-0.12 0.72-0.28 1.09-0.42l-3.58-13.87zm-51.79-4.97l-6.16 12.93c0.34 0.2 0.66 0.41 1 0.61l8.31-11.67c-1.07-0.59-2.13-1.22-3.15-1.87zm48.03 6.28c-1.16 0.37-2.32 0.73-3.51 1.02l5 13.38c0.38-0.1 0.77-0.17 1.15-0.28l-2.64-14.12zm-42.69-3.28l-4.8 13.5c0.34 0.16 0.69 0.32 1.04 0.47l7.06-12.49c-1.12-0.47-2.22-0.95-3.3-1.48zm36.79 4.81c-1.18 0.24-2.36 0.46-3.57 0.62l3.56 13.85c0.38-0.06 0.75-0.1 1.14-0.17l-1.13-14.3zm-33.18-3.18l-3.85 13.79c0.37 0.15 0.73 0.27 1.1 0.41l6.18-12.93c-1.16-0.39-2.3-0.81-3.43-1.27zm29.25 3.84c-1.2 0.16-2.4 0.24-3.62 0.32l2.59 14.11c0.39-0.03 0.78-0.07 1.17-0.11l-0.14-14.32zm-23.52-1.86l-2.39 14.13c0.38 0.1 0.76 0.2 1.15 0.3l4.74-13.51c-1.18-0.26-2.35-0.59-3.5-0.92zm17.45 2.31c-1.2 0.02-2.42 0-3.63-0.05l1.1 14.3c0.39 0.01 0.78 0 1.17 0l1.36-14.25zm-13.6-1.29l-1.39 14.22c0.38 0.08 0.77 0.15 1.15 0.22l3.83-13.8c-1.21-0.19-2.42-0.38-3.59-0.64zm9.64 1.23c-1.21-0.05-2.41-0.12-3.63-0.26l0.11 14.32c0.39 0.03 0.78 0.05 1.16 0.08l2.36-14.14z" fill="#800000"/>
        </g>
      </g>
      <g id="g4005" transform="matrix(.89184 0 0 .81308 284.04 124.64)">
        <path id="path4007" d="m-485.98-791.86h-63.29" transform="matrix(.76769 0 0 1 480.54 928.38)" stroke="#000" stroke-width="2.1781" fill="none"/>
        <rect id="rect4009" transform="matrix(.76769 0 -.016628 .99977 480.54 928.38)" height="515.47" width="63.029" y="-798.54" x="-566.28" fill="#1a1a1a"/>
        <path id="path4011" d="m-496.92-287.02h-63.29" transform="matrix(.76769 0 0 1 480.54 928.38)" stroke="#000" stroke-width="2.1781" fill="none"/>
        <path id="path4013" d="m-496.76-294.35h-63.29" transform="matrix(.76769 0 0 1 480.54 928.38)" stroke="#e6e1a0" stroke-width="2.1781" fill="none"/>
        <path id="path4015" d="m-496.59-302.22h-63.29" transform="matrix(.76769 0 0 1 480.54 928.38)" stroke="#e6e1a0" stroke-width="2.1781" fill="none"/>
        <path id="path4017" d="m-496.37-312.54h-63.28" transform="matrix(.76769 0 0 1 480.54 928.38)" stroke="#e6e1a0" stroke-width="2.1781" fill="none"/>
        <path id="path4019" d="m-496.1-325.15h-63.28" transform="matrix(.76769 0 0 1 480.54 928.38)" stroke="#e6e1a0" stroke-width="2.1781" fill="none"/>
        <path id="path4021" d="m-495.78-339.96h-63.28" transform="matrix(.76769 0 0 1 480.54 928.38)" stroke="#e6e1a0" stroke-width="2.1781" fill="none"/>
        <path id="path4023" d="m-495.41-356.9h-63.28" transform="matrix(.76769 0 0 1 480.54 928.38)" stroke="#e6e1a0" stroke-width="2.1781" fill="none"/>
        <path id="path4025" d="m-495-375.88h-63.28" transform="matrix(.76769 0 0 1 480.54 928.38)" stroke="#e6e1a0" stroke-width="2.1781" fill="none"/>
        <path id="path4027" d="m-494.54-396.87h-63.29" transform="matrix(.76769 0 0 1 480.54 928.38)" stroke="#e6e1a0" stroke-width="2.1781" fill="none"/>
        <path id="path4029" d="m-494.05-419.81h-63.28" transform="matrix(.76769 0 0 1 480.54 928.38)" stroke="#e6e1a0" stroke-width="2.1781" fill="none"/>
        <path id="path4031" d="m-493.51-444.66h-63.28" transform="matrix(.76769 0 0 1 480.54 928.38)" stroke="#e6e1a0" stroke-width="2.1781" fill="none"/>
        <path id="path4033" d="m-492.93-471.39h-63.28" transform="matrix(.76769 0 0 1 480.54 928.38)" stroke="#e6e1a0" stroke-width="2.1781" fill="none"/>
        <path id="path4035" d="m-492.31-499.96h-63.28" transform="matrix(.76769 0 0 1 480.54 928.38)" stroke="#e6e1a0" stroke-width="2.1781" fill="none"/>
        <path id="path4037" d="m-491.65-530.35h-63.29" transform="matrix(.76769 0 0 1 480.54 928.38)" stroke="#e6e1a0" stroke-width="2.1781" fill="none"/>
        <path id="path4039" d="m-490.95-562.52h-63.29" transform="matrix(.76769 0 0 1 480.54 928.38)" stroke="#e6e1a0" stroke-width="2.1781" fill="none"/>
        <path id="path4041" d="m-490.22-596.46h-63.28" transform="matrix(.76769 0 0 1 480.54 928.38)" stroke="#e6e1a0" stroke-width="2.1781" fill="none"/>
        <path id="path4043" d="m-489.45-632.14h-63.28" transform="matrix(.76769 0 0 1 480.54 928.38)" stroke="#e6e1a0" stroke-width="2.1781" fill="none"/>
        <path id="path4045" d="m-488.64-669.54h-63.28" transform="matrix(.76769 0 0 1 480.54 928.38)" stroke="#e6e1a0" stroke-width="2.1781" fill="none"/>
        <path id="path4047" d="m-487.79-708.63h-63.28" transform="matrix(.76769 0 0 1 480.54 928.38)" stroke="#e6e1a0" stroke-width="2.1781" fill="none"/>
        <path id="path4049" d="m-486.9-749.42h-63.29" transform="matrix(.76769 0 0 1 480.54 928.38)" stroke="#e6e1a0" stroke-width="2.1781" fill="none"/>
        <path id="path4051" d="m-550.21-791.86h63.29" transform="matrix(.76769 0 0 1 480.54 928.38)" stroke="#000" stroke-width="2.1781" fill="none"/>
        <rect id="rect4053" transform="matrix(-.76769 0 .016628 .99977 480.54 928.38)" height="515.47" width="63.029" y="-798.54" x="469.91" fill="#1a1a1a"/>
        <path id="path4055" d="m-539.27-287.02h63.29" transform="matrix(.76769 0 0 1 480.54 928.38)" stroke="#000" stroke-width="2.1781" fill="none"/>
        <path id="path4057" d="m-539.43-294.35h63.29" fill-rule="evenodd" transform="matrix(.76769 0 0 1 480.54 928.38)" stroke="#e6e1a0" stroke-width="2.1781" fill="#808000"/>
        <path id="path4059" d="m-539.6-302.22h63.29" fill-rule="evenodd" transform="matrix(.76769 0 0 1 480.54 928.38)" stroke="#e6e1a0" stroke-width="2.1781" fill="#808000"/>
        <path id="path4061" d="m-539.82-312.54h63.28" fill-rule="evenodd" transform="matrix(.76769 0 0 1 480.54 928.38)" stroke="#e6e1a0" stroke-width="2.1781" fill="#808000"/>
        <path id="path4063" d="m-540.1-325.15h63.29" fill-rule="evenodd" transform="matrix(.76769 0 0 1 480.54 928.38)" stroke="#e6e1a0" stroke-width="2.1781" fill="#808000"/>
        <path id="path4065" d="m-540.42-339.96h63.29" fill-rule="evenodd" transform="matrix(.76769 0 0 1 480.54 928.38)" stroke="#e6e1a0" stroke-width="2.1781" fill="#808000"/>
        <path id="path4067" d="m-540.78-356.9h63.28" fill-rule="evenodd" transform="matrix(.76769 0 0 1 480.54 928.38)" stroke="#e6e1a0" stroke-width="2.1781" fill="#808000"/>
        <path id="path4069" d="m-541.2-375.88h63.29" fill-rule="evenodd" transform="matrix(.76769 0 0 1 480.54 928.38)" stroke="#e6e1a0" stroke-width="2.1781" fill="#808000"/>
        <path id="path4071" d="m-541.65-396.87h63.29" fill-rule="evenodd" transform="matrix(.76769 0 0 1 480.54 928.38)" stroke="#e6e1a0" stroke-width="2.1781" fill="#808000"/>
        <path id="path4073" d="m-542.15-419.81h63.29" fill-rule="evenodd" transform="matrix(.76769 0 0 1 480.54 928.38)" stroke="#e6e1a0" stroke-width="2.1781" fill="#808000"/>
        <path id="path4075" d="m-542.69-444.66h63.29" fill-rule="evenodd" transform="matrix(.76769 0 0 1 480.54 928.38)" stroke="#e6e1a0" stroke-width="2.1781" fill="#808000"/>
        <path id="path4077" d="m-543.26-471.39h63.28" fill-rule="evenodd" transform="matrix(.76769 0 0 1 480.54 928.38)" stroke="#e6e1a0" stroke-width="2.1781" fill="#808000"/>
        <path id="path4079" d="m-543.88-499.96h63.28" fill-rule="evenodd" transform="matrix(.76769 0 0 1 480.54 928.38)" stroke="#e6e1a0" stroke-width="2.1781" fill="#808000"/>
        <path id="path4081" d="m-544.54-530.35h63.28" fill-rule="evenodd" transform="matrix(.76769 0 0 1 480.54 928.38)" stroke="#e6e1a0" stroke-width="2.1781" fill="#808000"/>
        <path id="path4083" d="m-545.24-562.52h63.29" fill-rule="evenodd" transform="matrix(.76769 0 0 1 480.54 928.38)" stroke="#e6e1a0" stroke-width="2.1781" fill="#808000"/>
        <path id="path4085" d="m-545.97-596.46h63.28" fill-rule="evenodd" transform="matrix(.76769 0 0 1 480.54 928.38)" stroke="#e6e1a0" stroke-width="2.1781" fill="#808000"/>
        <path id="path4087" d="m-546.75-632.14h63.29" fill-rule="evenodd" transform="matrix(.76769 0 0 1 480.54 928.38)" stroke="#e6e1a0" stroke-width="2.1781" fill="#808000"/>
        <path id="path4089" d="m-547.56-669.54h63.29" fill-rule="evenodd" transform="matrix(.76769 0 0 1 480.54 928.38)" stroke="#e6e1a0" stroke-width="2.1781" fill="#808000"/>
        <path id="path4091" d="m-548.4-708.63h63.28" fill-rule="evenodd" transform="matrix(.76769 0 0 1 480.54 928.38)" stroke="#e6e1a0" stroke-width="2.1781" fill="#808000"/>
        <path id="path4093" d="m-549.29-749.42h63.29" fill-rule="evenodd" transform="matrix(.76769 0 0 1 480.54 928.38)" stroke="#e6e1a0" stroke-width="2.1781" fill="#808000"/>
        <rect id="rect4095" height="4.9343" width="50.33" y="128.31" x="57.648" fill="#ffe6d5"/>
      </g>
      <path id="path4097" fill="#1a1a1a" d="m295.05 840.54v23.84l14.34 1.96c3.09 0.42 2.5 5.77 5.62 5.77h88.89c3.12 0 2.54-5.35 5.63-5.77l14.34-1.96v-23.84h-128.82z"/>
      <rect id="rect2716" ry="1.1137" rx=".86165" transform="matrix(.99948 -.032270 .026286 .99965 0 0)" height="2.5456" width="80.995" y="858.91" x="296.04" fill="#fff6d5"/>
      <path id="path4101" stroke="#f1c338" stroke-width="1.5225" fill="none" d="m339.03 229.39c-8.42 583.53-10.54 631.61-10.54 631.61"/>
      <path id="path4103" stroke-linejoin="round" d="m-562.14 762.72a1.0714 1.0714 0 1 1 -2.15 0 1.0714 1.0714 0 1 1 2.15 0z" transform="matrix(3.1134 0 0 3.0708 2081.2 -1479.7)" stroke="#ffffe2" stroke-width="1.2"/>
      <path id="path4115" stroke="#f1c338" stroke-width="1.2816" fill="none" d="m346.55 229.35c-4.67 583.57-6.09 632.36-6.09 632.36"/>
      <path id="path4105" stroke-linejoin="round" d="m-562.14 762.72a1.0714 1.0714 0 1 1 -2.15 0 1.0714 1.0714 0 1 1 2.15 0z" transform="matrix(3.1134 0 0 3.0708 2094.2 -1479.7)" stroke="#ffffe2" stroke-width="1.2"/>
      <path id="path4117" stroke="#f1c338" stroke-width="1.0407" fill="none" d="m353.37 229.33c0.53 583.59 0.53 632.38 0.53 632.38"/>
      <path id="path4107" stroke-linejoin="round" d="m-562.14 762.72a1.0714 1.0714 0 1 1 -2.15 0 1.0714 1.0714 0 1 1 2.15 0z" transform="matrix(3.1134 0 0 3.0708 2107.2 -1479.7)" stroke="#ffffe2" stroke-width="1.2"/>
      <path id="path4119" stroke="#f1c338" stroke-width=".88009" fill="none" d="m360.73 229.35c4.89 583.57 6.31 633.06 6.31 633.06"/>
      <path id="path4109" stroke-linejoin="round" d="m-562.14 762.72a1.0714 1.0714 0 1 1 -2.15 0 1.0714 1.0714 0 1 1 2.15 0z" transform="matrix(3.1134 0 0 3.0708 2120.1 -1479.7)" stroke="#ffffe2" stroke-width="1.2"/>
      <path id="path4121" d="m369.63 229.37c7.52 583.55 10.35 633.04 10.35 633.04" stroke-opacity=".99216" stroke="#ebebeb" stroke-width=".71949" fill="none"/>
      <path id="path4111" stroke-linejoin="round" d="m-562.14 762.72a1.0714 1.0714 0 1 1 -2.15 0 1.0714 1.0714 0 1 1 2.15 0z" transform="matrix(3.1134 0 0 3.0708 2133.1 -1479.7)" stroke="#ffffe2" stroke-width="1.2"/>
      <path id="path4123" stroke="#ebebeb" stroke-width=".63919" fill="none" d="m377.55 229.15c11.41 583.48 14.94 632.27 14.94 632.27"/>
      <path id="path4113" stroke-linejoin="round" d="m-562.14 762.72a1.0714 1.0714 0 1 1 -2.15 0 1.0714 1.0714 0 1 1 2.15 0z" transform="matrix(3.1134 0 0 3.0708 2146.1 -1479.7)" stroke="#ffffe2" stroke-width="1.2"/>
      <path id="path3616" stroke-linejoin="round" d="m-501.04 264.44a84.853 80.812 0 1 1 -169.7 0 84.853 80.812 0 1 1 169.7 0z" transform="matrix(-.092487 -.0052789 -.0053184 .096971 331.57 94.052)" stroke="#fffffb" stroke-width="2.796" fill="url(#radialGradient3897)"/>
      <path id="path3622" stroke-linejoin="round" d="m-501.04 264.44a84.853 80.812 0 1 1 -169.7 0 84.853 80.812 0 1 1 169.7 0z" transform="matrix(-.092487 -.0052789 -.0053184 .096971 330.23 126.54)" stroke="#fffffb" stroke-width="2.796" fill="url(#radialGradient3897)"/>
      <path id="path3628" stroke-linejoin="round" d="m-501.04 264.44a84.853 80.812 0 1 1 -169.7 0 84.853 80.812 0 1 1 169.7 0z" transform="matrix(-.092487 -.0052789 -.0053184 .096971 329.09 159.63)" stroke="#fffffb" stroke-width="2.796" fill="url(#radialGradient3897)"/>
      <path id="path3644" d="m379.05 189.74c-0.85 39.65-1.46 39.25-1.46 39.25" stroke-opacity=".99216" stroke="#ebebeb" stroke-width=".72684px" fill="none"/>
      <path id="path3646" d="m380.88 154.05c-10.79 74.5-10.99 74.74-10.99 74.74" stroke-opacity=".99216" stroke="#ebebeb" stroke-width=".97292px" fill="none"/>
      <path id="path3648" stroke="#f1c338" stroke-width="1.1242" fill="none" d="m381.28 122.82c-20.02 106.73-20.11 106.17-20.11 106.17"/>
      <path id="path2766" stroke-linejoin="round" d="m-501.04 264.44a84.853 80.812 0 1 1 -169.7 0 84.853 80.812 0 1 1 169.7 0z" transform="matrix(.092487 -.0052789 .0053184 .096971 383.83 94.052)" stroke="#fffffb" stroke-width="2.796" fill="url(#radialGradient3897)"/>
      <path id="path2772" stroke-linejoin="round" d="m-501.04 264.44a84.853 80.812 0 1 1 -169.7 0 84.853 80.812 0 1 1 169.7 0z" transform="matrix(.092487 -.0052789 .0053184 .096971 385.17 126.54)" stroke="#fffffb" stroke-width="2.796" fill="url(#radialGradient3897)"/>
      <path id="path2778" stroke-linejoin="round" d="m-501.04 264.44a84.853 80.812 0 1 1 -169.7 0 84.853 80.812 0 1 1 169.7 0z" transform="matrix(.092487 -.0052789 .0053184 .096971 386.31 159.63)" stroke="#fffffb" stroke-width="2.796" fill="url(#radialGradient3897)"/>
      <path id="path2794" stroke="#f1c338" stroke-width="1.1242" fill="none" d="m333.41 122.53c20.02 106.73 20.11 106.17 20.11 106.17"/>
      <path id="path2796" stroke="#f1c338" stroke-width=".97292px" fill="none" d="m334.55 154.05c10.79 74.5 11 74.74 11 74.74"/>
      <path id="path2798" stroke="#f1c338" stroke-width=".72684px" fill="none" d="m335.86 189.02c3.01 39.8 3.04 39.97 3.04 39.97"/>
      <path id="path3618" stroke-linejoin="round" d="m-501.04 264.44a84.853 80.812 0 1 1 -169.7 0 84.853 80.812 0 1 1 169.7 0z" transform="matrix(-.037435 -.0021367 -.0021527 .039250 362.99 111.12)" stroke="#fffffb" stroke-width="2.796" fill="url(#radialGradient3897)"/>
      <path id="path3624" stroke-linejoin="round" d="m-501.04 264.44a84.853 80.812 0 1 1 -169.7 0 84.853 80.812 0 1 1 169.7 0z" transform="matrix(-.037435 -.0021367 -.0021527 .039250 361.64 143.6)" stroke="#fffffb" stroke-width="2.796" fill="url(#radialGradient3897)"/>
      <path id="path3630" stroke-linejoin="round" d="m-501.04 264.44a84.853 80.812 0 1 1 -169.7 0 84.853 80.812 0 1 1 169.7 0z" transform="matrix(-.037435 -.0021367 -.0021527 .039250 360.51 176.7)" stroke="#fffffb" stroke-width="2.796" fill="url(#radialGradient3897)"/>
      <path id="path2780" stroke-linejoin="round" d="m-501.04 264.44a84.853 80.812 0 1 1 -169.7 0 84.853 80.812 0 1 1 169.7 0z" transform="matrix(.037435 -.0021367 .0021527 .039250 354.89 176.7)" stroke="#fffffb" stroke-width="2.796" fill="url(#radialGradient3897)"/>
      <path id="path2774" stroke-linejoin="round" d="m-501.04 264.44a84.853 80.812 0 1 1 -169.7 0 84.853 80.812 0 1 1 169.7 0z" transform="matrix(.037435 -.0021367 .0021527 .039250 353.75 143.6)" stroke="#fffffb" stroke-width="2.796" fill="url(#radialGradient3897)"/>
      <path id="path2768" stroke-linejoin="round" d="m-501.04 264.44a84.853 80.812 0 1 1 -169.7 0 84.853 80.812 0 1 1 169.7 0z" transform="matrix(.037435 -.0021367 .0021527 .039250 352.41 111.12)" stroke="#fffffb" stroke-width="2.796" fill="url(#radialGradient3897)"/>
    </g>
  </g>
  <metadata>
    <rdf:RDF>
      <cc:Work>
        <dc:format>image/svg+xml</dc:format>
        <dc:type rdf:resource="http://purl.org/dc/dcmitype/StillImage"/>
        <cc:license rdf:resource="http://creativecommons.org/licenses/publicdomain/"/>
        <dc:publisher>
          <cc:Agent rdf:about="http://openclipart.org/">
            <dc:title>Openclipart</dc:title>
          </cc:Agent>
        </dc:publisher>
        <dc:title>cutaway</dc:title>
        <dc:date>2008-05-14T00:09:27</dc:date>
        <dc:description>acoustic, acoustic, clip art, clipart, guitar, guitar, image, instrument, instrument, media, music, music, musical, musical, public domain, svg, </dc:description>
        <dc:source>http://openclipart.org/detail/16731/cutaway-by-narrowhouse</dc:source>
        <dc:creator>
          <cc:Agent>
            <dc:title>narrowhouse</dc:title>
          </cc:Agent>
        </dc:creator>
        <dc:subject>
          <rdf:Bag>
            <rdf:li>acoustic</rdf:li>
            <rdf:li>clip art</rdf:li>
            <rdf:li>clipart</rdf:li>
            <rdf:li>guitar</rdf:li>
            <rdf:li>image</rdf:li>
            <rdf:li>instrument</rdf:li>
            <rdf:li>media</rdf:li>
            <rdf:li>music</rdf:li>
            <rdf:li>musical</rdf:li>
            <rdf:li>public domain</rdf:li>
            <rdf:li>svg</rdf:li>
          </rdf:Bag>
        </dc:subject>
      </cc:Work>
      <cc:License rdf:about="http://creativecommons.org/licenses/publicdomain/">
        <cc:permits rdf:resource="http://creativecommons.org/ns#Reproduction"/>
        <cc:permits rdf:resource="http://creativecommons.org/ns#Distribution"/>
        <cc:permits rdf:resource="http://creativecommons.org/ns#DerivativeWorks"/>
      </cc:License>
    </rdf:RDF>
  </metadata>
</svg>
